<svg id="visual" viewBox="0 0 1980 1080" width="1980" height="1080" xmlns="http://www.w3.org/2000/svg" xmlns:xlink="http://www.w3.org/1999/xlink" version="1.1"><rect x="0" y="0" width="1980" height="1080" fill="#030806"></rect><path d="M0 404L41.3 409.3C82.7 414.7 165.3 425.3 247.8 411.3C330.3 397.3 412.7 358.7 495.2 348.8C577.7 339 660.3 358 742.8 362.8C825.3 367.7 907.7 358.3 990.2 363.8C1072.7 369.3 1155.3 389.7 1237.8 366.2C1320.3 342.7 1402.7 275.3 1485.2 281.8C1567.7 288.3 1650.3 368.7 1732.8 382.5C1815.3 396.3 1897.7 343.7 1938.8 317.3L1980 291L1980 1081L1938.8 1081C1897.7 1081 1815.3 1081 1732.8 1081C1650.3 1081 1567.7 1081 1485.2 1081C1402.7 1081 1320.3 1081 1237.8 1081C1155.3 1081 1072.7 1081 990.2 1081C907.7 1081 825.3 1081 742.8 1081C660.3 1081 577.7 1081 495.2 1081C412.7 1081 330.3 1081 247.8 1081C165.3 1081 82.7 1081 41.3 1081L0 1081Z" fill="#33e39f"></path><path d="M0 372L41.3 374.8C82.7 377.7 165.3 383.3 247.8 416.3C330.3 449.3 412.7 509.7 495.2 527.8C577.7 546 660.3 522 742.8 513.2C825.3 504.3 907.7 510.7 990.2 484.5C1072.7 458.3 1155.3 399.7 1237.8 381.7C1320.3 363.7 1402.7 386.3 1485.2 421C1567.7 455.7 1650.3 502.3 1732.8 537.3C1815.3 572.3 1897.7 595.7 1938.8 607.3L1980 619L1980 1081L1938.8 1081C1897.7 1081 1815.3 1081 1732.8 1081C1650.3 1081 1567.7 1081 1485.2 1081C1402.7 1081 1320.3 1081 1237.8 1081C1155.3 1081 1072.7 1081 990.2 1081C907.7 1081 825.3 1081 742.8 1081C660.3 1081 577.7 1081 495.2 1081C412.7 1081 330.3 1081 247.8 1081C165.3 1081 82.7 1081 41.3 1081L0 1081Z" fill="#2dca8d"></path><path d="M0 624L41.3 614C82.7 604 165.3 584 247.8 581.7C330.3 579.3 412.7 594.7 495.2 608.5C577.7 622.3 660.3 634.7 742.8 643.8C825.3 653 907.7 659 990.2 668.8C1072.7 678.7 1155.3 692.3 1237.8 668C1320.3 643.7 1402.7 581.3 1485.2 547C1567.7 512.7 1650.3 506.3 1732.8 510.3C1815.3 514.3 1897.7 528.7 1938.8 535.8L1980 543L1980 1081L1938.8 1081C1897.7 1081 1815.3 1081 1732.8 1081C1650.3 1081 1567.7 1081 1485.2 1081C1402.7 1081 1320.3 1081 1237.8 1081C1155.3 1081 1072.7 1081 990.2 1081C907.7 1081 825.3 1081 742.8 1081C660.3 1081 577.7 1081 495.2 1081C412.7 1081 330.3 1081 247.8 1081C165.3 1081 82.7 1081 41.3 1081L0 1081Z" fill="#27b17b"></path><path d="M0 808L41.3 818.3C82.7 828.7 165.3 849.3 247.8 838.3C330.3 827.3 412.7 784.7 495.2 755.8C577.7 727 660.3 712 742.8 709C825.3 706 907.7 715 990.2 743C1072.7 771 1155.3 818 1237.8 815.8C1320.3 813.7 1402.7 762.3 1485.2 764C1567.7 765.7 1650.3 820.3 1732.8 844.7C1815.3 869 1897.7 863 1938.8 860L1980 857L1980 1081L1938.8 1081C1897.7 1081 1815.3 1081 1732.8 1081C1650.3 1081 1567.7 1081 1485.2 1081C1402.7 1081 1320.3 1081 1237.8 1081C1155.3 1081 1072.7 1081 990.2 1081C907.7 1081 825.3 1081 742.8 1081C660.3 1081 577.7 1081 495.2 1081C412.7 1081 330.3 1081 247.8 1081C165.3 1081 82.7 1081 41.3 1081L0 1081Z" fill="#21996a"></path><path d="M0 851L41.3 851.8C82.7 852.7 165.3 854.3 247.8 860.2C330.3 866 412.7 876 495.2 884.2C577.7 892.3 660.3 898.7 742.8 895.8C825.3 893 907.7 881 990.2 873C1072.7 865 1155.3 861 1237.8 859.8C1320.3 858.7 1402.7 860.3 1485.2 877.7C1567.7 895 1650.3 928 1732.8 948.2C1815.3 968.3 1897.7 975.7 1938.8 979.3L1980 983L1980 1081L1938.8 1081C1897.7 1081 1815.3 1081 1732.8 1081C1650.3 1081 1567.7 1081 1485.2 1081C1402.7 1081 1320.3 1081 1237.8 1081C1155.3 1081 1072.7 1081 990.2 1081C907.7 1081 825.3 1081 742.8 1081C660.3 1081 577.7 1081 495.2 1081C412.7 1081 330.3 1081 247.8 1081C165.3 1081 82.7 1081 41.3 1081L0 1081Z" fill="#1b8159"></path></svg>