<svg id="visual" viewBox="0 0 900 600" width="900" height="600" xmlns="http://www.w3.org/2000/svg" xmlns:xlink="http://www.w3.org/1999/xlink" version="1.1"><path d="M0 208L25 219C50 230 100 252 150 238.8C200 225.7 250 177.3 300 176.2C350 175 400 221 450 223.8C500 226.7 550 186.3 600 169.3C650 152.3 700 158.7 750 170.8C800 183 850 201 875 210L900 219L900 601L875 601C850 601 800 601 750 601C700 601 650 601 600 601C550 601 500 601 450 601C400 601 350 601 300 601C250 601 200 601 150 601C100 601 50 601 25 601L0 601Z" fill="#33e39f"></path><path d="M0 228L25 236.2C50 244.3 100 260.7 150 281.7C200 302.7 250 328.3 300 342C350 355.7 400 357.3 450 340.3C500 323.3 550 287.7 600 269.2C650 250.7 700 249.3 750 248.2C800 247 850 246 875 245.5L900 245L900 601L875 601C850 601 800 601 750 601C700 601 650 601 600 601C550 601 500 601 450 601C400 601 350 601 300 601C250 601 200 601 150 601C100 601 50 601 25 601L0 601Z" fill="#2dca8d"></path><path d="M0 296L25 310C50 324 100 352 150 358.3C200 364.7 250 349.3 300 342.8C350 336.3 400 338.7 450 334C500 329.3 550 317.7 600 324.5C650 331.3 700 356.7 750 359.5C800 362.3 850 342.7 875 332.8L900 323L900 601L875 601C850 601 800 601 750 601C700 601 650 601 600 601C550 601 500 601 450 601C400 601 350 601 300 601C250 601 200 601 150 601C100 601 50 601 25 601L0 601Z" fill="#27b17b"></path><path d="M0 450L25 444.8C50 439.7 100 429.3 150 420.2C200 411 250 403 300 394.7C350 386.3 400 377.7 450 389.2C500 400.7 550 432.3 600 439.7C650 447 700 430 750 425.2C800 420.3 850 427.7 875 431.3L900 435L900 601L875 601C850 601 800 601 750 601C700 601 650 601 600 601C550 601 500 601 450 601C400 601 350 601 300 601C250 601 200 601 150 601C100 601 50 601 25 601L0 601Z" fill="#21996a"></path><path d="M0 526L25 525.2C50 524.3 100 522.7 150 521.8C200 521 250 521 300 512.2C350 503.3 400 485.7 450 486.7C500 487.7 550 507.3 600 517.3C650 527.3 700 527.7 750 518.3C800 509 850 490 875 480.5L900 471L900 601L875 601C850 601 800 601 750 601C700 601 650 601 600 601C550 601 500 601 450 601C400 601 350 601 300 601C250 601 200 601 150 601C100 601 50 601 25 601L0 601Z" fill="#1b8159"></path></svg>